<?xml version="1.0" encoding="utf-8"?>
<!-- Generator: Adobe Illustrator 27.2.0, SVG Export Plug-In . SVG Version: 6.00 Build 0)  -->
<svg version="1.1" id="Layer_2_1_" xmlns="http://www.w3.org/2000/svg" xmlns:xlink="http://www.w3.org/1999/xlink" x="0px" y="0px"
	 viewBox="0 0 512 512" style="enable-background:new 0 0 512 512;" xml:space="preserve">
<style type="text/css">
	.st0{fill:#6FB586;}
	.st1{fill:#658746;}
	.st2{fill:#EDEFF1;}
	.st3{fill:#E8B089;}
	.st4{fill:#D1956D;}
</style>
<path class="st0" d="M383.9,351.1L301,332h-90l-82.9,19.1c-36.3,8.4-62.1,40.7-62.1,78V502h380v-72.9
	C446,391.8,420.3,359.5,383.9,351.1z"/>
<g>
	<rect x="130" y="461.8" class="st1" width="20" height="40.2"/>
</g>
<g>
	<rect x="362" y="461.8" class="st1" width="20" height="40.2"/>
</g>
<path class="st2" d="M256,399c35.3,0,64.2-27.4,66.8-62l-21.8-5h-90l-21.8,5C191.8,371.6,220.7,399,256,399z"/>
<path class="st3" d="M301,332v-47.2h-90V332c0,24.9,20.1,45,45,45l0,0C280.9,377,301,356.9,301,332z"/>
<path class="st4" d="M256,315.6c16,0,31.2-3.3,45-9.2v-22.7h-90v22.7C224.8,312.3,240,315.6,256,315.6z"/>
<path class="st3" d="M361,146h-12v52h12c7.7,0,14-6.3,14-14v-24C375,152.3,368.7,146,361,146z"/>
<path class="st3" d="M151,146h12v52h-12c-7.7,0-14-6.3-14-14v-24C137,152.3,143.3,146,151,146z"/>
<path class="st3" d="M256,10L256,10c-51.4,0-93,41.6-93,93v101.1c0,51.4,41.6,93,93,93l0,0c51.4,0,93-41.6,93-93V103
	C349,51.6,307.4,10,256,10z"/>
</svg>
